<svg width="47" height="47" viewBox="0 0 47 47" fill="none" xmlns="http://www.w3.org/2000/svg">
<g clip-path="url(#clip0_194_600)">
<path d="M45.0418 21.541C44.5224 21.541 44.0243 21.3346 43.657 20.9674C43.2897 20.6001 43.0834 20.102 43.0834 19.5826C43.0793 15.4288 41.4274 11.4464 38.4902 8.5092C35.553 5.57203 31.5705 3.92011 27.4168 3.91596C26.8974 3.91596 26.3993 3.70964 26.032 3.34238C25.6647 2.97512 25.4584 2.47701 25.4584 1.95763C25.4584 1.43825 25.6647 0.940137 26.032 0.572878C26.3993 0.20562 26.8974 -0.000704379 27.4168 -0.000704379C32.6088 0.0049975 37.5866 2.07007 41.258 5.74142C44.9293 9.41277 46.9944 14.3906 47.0001 19.5826C47.0001 20.102 46.7938 20.6001 46.4265 20.9674C46.0593 21.3346 45.5611 21.541 45.0418 21.541ZM39.1668 19.5826C39.1668 16.4663 37.9288 13.4777 35.7253 11.2741C33.5217 9.07057 30.5331 7.83263 27.4168 7.83263C26.8974 7.83263 26.3993 8.03895 26.032 8.40621C25.6647 8.77347 25.4584 9.27158 25.4584 9.79096C25.4584 10.3103 25.6647 10.8085 26.032 11.1757C26.3993 11.543 26.8974 11.7493 27.4168 11.7493C29.4943 11.7493 31.4867 12.5746 32.9558 14.0436C34.4248 15.5127 35.2501 17.5051 35.2501 19.5826C35.2501 20.102 35.4564 20.6001 35.8237 20.9674C36.1909 21.3346 36.689 21.541 37.2084 21.541C37.7278 21.541 38.2259 21.3346 38.5932 20.9674C38.9604 20.6001 39.1668 20.102 39.1668 19.5826ZM43.4418 43.4038L45.2239 41.3495C46.3582 40.2116 46.9951 38.6704 46.9951 37.0637C46.9951 35.457 46.3582 33.9158 45.2239 32.7779C45.1632 32.7172 40.4514 29.0923 40.4514 29.0923C39.3206 28.0159 37.8185 27.4165 36.2573 27.4187C34.696 27.4208 33.1956 28.0244 32.0678 29.104L28.3352 32.2491C25.2884 30.9881 22.5207 29.1377 20.1911 26.804C17.8614 24.4704 16.0158 21.6995 14.76 18.6505L17.8934 14.9296C18.9738 13.802 19.5781 12.3013 19.5807 10.7396C19.5832 9.17787 18.9838 7.67523 17.9071 6.54405C17.9071 6.54405 14.2783 1.83817 14.2176 1.77746C13.1003 0.652886 11.5854 0.0130471 10.0002 -0.00380876C8.415 -0.0206646 6.88682 0.586816 5.74584 1.68738L3.49376 3.64571C-9.81116 19.0813 18.8393 47.5104 34.784 46.9993C36.3941 47.0086 37.9898 46.6953 39.4768 46.0777C40.9638 45.4602 42.312 44.551 43.4418 43.4038V43.4038Z" fill="#502F00"/>
</g>
<defs>
<clipPath id="clip0_194_600">
<rect width="47" height="47" fill="white"/>
</clipPath>
</defs>
</svg>
