<svg width="98" height="98" viewBox="0 0 98 98" fill="none" xmlns="http://www.w3.org/2000/svg">
<g clip-path="url(#clip0_247_1025)">
<path d="M9.43208 70.2006L31.8904 92.6589C28.7502 93.9378 25.3025 94.2618 21.979 93.5904C18.6555 92.919 15.6039 91.2821 13.2064 88.8846C10.8089 86.487 9.17194 83.4355 8.50056 80.112C7.82918 76.7885 8.15321 73.3408 9.43208 70.2006ZM29.9182 8.0849C30.9795 7.86831 31.9113 7.23898 32.5086 6.33537C33.1059 5.43176 33.3198 4.32788 33.1032 3.26657C32.8866 2.20526 32.2572 1.27346 31.3536 0.676159C30.45 0.0788558 29.3461 -0.135025 28.2848 0.0815687C17.3347 1.9999 7.5293 8.02424 0.869328 16.9253C0.264905 17.7974 0.0237032 18.8706 0.196811 19.9175C0.369919 20.9643 0.943741 21.9027 1.79673 22.5338C2.64973 23.1649 3.7149 23.4392 4.76662 23.2986C5.81835 23.158 6.77403 22.6135 7.43124 21.7804C12.879 14.4848 20.9362 9.57767 29.9182 8.0849ZM94.7329 65.4272C93.6754 65.1951 92.5691 65.3925 91.6571 65.976C90.7451 66.5595 90.1022 67.4813 89.8697 68.5387C88.3183 77.3496 83.4767 85.2418 76.3252 90.6172C75.4502 91.2562 74.8648 92.2166 74.6979 93.2871C74.531 94.3577 74.7961 95.4507 75.4351 96.3257C76.074 97.2008 77.0344 97.7862 78.105 97.9531C79.1755 98.12 80.2685 97.8549 81.1436 97.2159C89.8825 90.6475 95.8416 81.0416 97.8444 70.2945C97.9599 69.7706 97.971 69.229 97.8772 68.7008C97.7833 68.1726 97.5862 67.6681 97.2973 67.2161C97.0083 66.764 96.6331 66.3734 96.1931 66.0665C95.7531 65.7595 95.2569 65.5423 94.7329 65.4272ZM82.3482 21.4252L88.6365 15.1368C89.0265 14.7601 89.3376 14.3096 89.5516 13.8114C89.7656 13.3132 89.8782 12.7774 89.8829 12.2352C89.8876 11.693 89.7843 11.1553 89.579 10.6535C89.3737 10.1517 89.0705 9.69577 88.6871 9.31237C88.3037 8.92898 87.8478 8.62578 87.346 8.42046C86.8441 8.21515 86.3065 8.11184 85.7643 8.11655C85.2221 8.12126 84.6863 8.2339 84.1881 8.4479C83.6899 8.66191 83.2393 8.97299 82.8627 9.36299L76.5662 15.6595C70.9286 11.1797 64.0316 8.5745 56.8403 8.20841C49.6489 7.84233 42.523 9.73368 36.4597 13.6178L14.0013 27.5012C11.3678 29.1287 9.13659 31.331 7.47481 33.9431C5.81304 36.5552 4.76376 39.5094 4.40554 42.5845C4.04732 45.6595 4.38945 48.7758 5.40631 51.6999C6.42318 54.6241 8.08841 57.2802 10.2773 59.4696L38.6932 87.8855C40.8866 90.0795 43.5488 91.7477 46.4797 92.7646C49.4106 93.7816 52.5339 94.1208 55.6148 93.7569C58.6957 93.393 61.654 92.3353 64.2672 90.6634C66.8805 88.9916 69.0807 86.749 70.7025 84.1043L85.4025 60.1107C88.7814 54.0847 90.2948 47.1912 89.7511 40.304C89.2073 33.4168 86.6308 26.8462 82.3482 21.4252Z" fill="white"/>
</g>
<defs>
<clipPath id="clip0_247_1025">
<rect width="98" height="98" fill="white"/>
</clipPath>
</defs>
</svg>
