<svg width="40" height="40" viewBox="0 0 40 40" fill="none" xmlns="http://www.w3.org/2000/svg">
<g clip-path="url(#clip0_199_478)">
<path d="M29.5347 5L27.1797 1.94667C26.7106 1.34301 26.1103 0.854028 25.4242 0.516757C24.7381 0.179486 23.9842 0.00277174 23.2197 0L16.7797 0C16.0152 0.00277174 15.2614 0.179486 14.5753 0.516757C13.8892 0.854028 13.2888 1.34301 12.8197 1.94667L10.4647 5H29.5347Z" fill="black"/>
<path d="M20.0003 30.0001C23.6822 30.0001 26.6669 27.0153 26.6669 23.3334C26.6669 19.6515 23.6822 16.6668 20.0003 16.6668C16.3184 16.6668 13.3336 19.6515 13.3336 23.3334C13.3336 27.0153 16.3184 30.0001 20.0003 30.0001Z" fill="black"/>
<path d="M31.6667 8.33319H8.33333C6.12401 8.33584 4.00593 9.21466 2.4437 10.7769C0.88147 12.3391 0.00264643 14.4572 0 16.6665L0 31.6665C0.00264643 33.8758 0.88147 35.9939 2.4437 37.5561C4.00593 39.1183 6.12401 39.9972 8.33333 39.9998H31.6667C33.876 39.9972 35.9941 39.1183 37.5563 37.5561C39.1185 35.9939 39.9974 33.8758 40 31.6665V16.6665C39.9974 14.4572 39.1185 12.3391 37.5563 10.7769C35.9941 9.21466 33.876 8.33584 31.6667 8.33319ZM20 33.3332C18.0222 33.3332 16.0888 32.7467 14.4443 31.6479C12.7998 30.549 11.5181 28.9873 10.7612 27.16C10.0043 25.3327 9.80629 23.3221 10.1921 21.3823C10.578 19.4425 11.5304 17.6606 12.9289 16.2621C14.3275 14.8636 16.1093 13.9112 18.0491 13.5253C19.9889 13.1395 21.9996 13.3375 23.8268 14.0944C25.6541 14.8513 27.2159 16.133 28.3147 17.7775C29.4135 19.422 30 21.3554 30 23.3332C29.9974 25.9845 28.9429 28.5265 27.0681 30.4013C25.1934 32.2761 22.6514 33.3305 20 33.3332Z" fill="black"/>
</g>
<defs>
<clipPath id="clip0_199_478">
<rect width="40" height="40" fill="white"/>
</clipPath>
</defs>
</svg>
