<svg width="40" height="40" viewBox="0 0 40 40" fill="none" xmlns="http://www.w3.org/2000/svg">
<g clip-path="url(#clip0_157_675)">
<path d="M11.6667 0H6.66667C2.98477 0 0 2.98477 0 6.66667V11.6667C0 15.3486 2.98477 18.3333 6.66667 18.3333H11.6667C15.3486 18.3333 18.3333 15.3486 18.3333 11.6667V6.66667C18.3333 2.98477 15.3486 0 11.6667 0Z" fill="#537B2F"/>
<path d="M11.6667 21.6665H6.66667C2.98477 21.6665 0 24.6513 0 28.3332V33.3332C0 37.0151 2.98477 39.9999 6.66667 39.9999H11.6667C15.3486 39.9999 18.3333 37.0151 18.3333 33.3332V28.3332C18.3333 24.6513 15.3486 21.6665 11.6667 21.6665Z" fill="#537B2F"/>
<path d="M37.155 31.8765L33.3333 35.6932V4.30649L37.155 8.12316C37.3098 8.2779 37.4936 8.40063 37.6959 8.48433C37.8982 8.56803 38.115 8.61107 38.3339 8.611C38.5528 8.61092 38.7696 8.56772 38.9718 8.48388C39.174 8.40003 39.3577 8.27718 39.5125 8.12232C39.6672 7.96747 39.7899 7.78366 39.8736 7.58138C39.9573 7.3791 40.0004 7.16232 40.0003 6.9434C40.0002 6.72449 39.957 6.50773 39.8732 6.30551C39.7893 6.10329 39.6665 5.91957 39.5116 5.76483L35.2 1.45983C34.2625 0.523489 32.9916 -0.00244141 31.6666 -0.00244141C30.3416 -0.00244141 29.0708 0.523489 28.1333 1.45983L23.8217 5.76483C23.6668 5.91957 23.544 6.10329 23.4601 6.30551C23.3763 6.50773 23.3331 6.72449 23.333 6.9434C23.3329 7.16232 23.376 7.3791 23.4597 7.58138C23.5434 7.78366 23.6661 7.96747 23.8208 8.12232C23.9756 8.27718 24.1593 8.40003 24.3615 8.48388C24.5637 8.56772 24.7805 8.61092 24.9994 8.611C25.2183 8.61107 25.4351 8.56803 25.6374 8.48433C25.8397 8.40063 26.0235 8.2779 26.1783 8.12316L30 4.30649V35.6932L26.1783 31.8765C26.0234 31.7218 25.8394 31.599 25.6371 31.5154C25.4347 31.4317 25.2178 31.3887 24.9988 31.3889C24.7798 31.3891 24.563 31.4323 24.3607 31.5163C24.1585 31.6002 23.9747 31.7232 23.82 31.8782C23.6652 32.0331 23.5425 32.217 23.4589 32.4194C23.3752 32.6218 23.3322 32.8387 23.3324 33.0577C23.3326 33.2767 23.3758 33.4935 23.4598 33.6957C23.5437 33.898 23.6667 34.0818 23.8217 34.2365L28.1333 38.5415C29.0721 39.4754 30.3424 39.9996 31.6666 39.9996C32.9908 39.9996 34.2612 39.4754 35.2 38.5415L39.5116 34.2365C39.8246 33.924 40.0006 33.4999 40.0009 33.0577C40.0012 32.6154 39.8258 32.1911 39.5133 31.8782C39.2008 31.5652 38.7768 31.3892 38.3345 31.3889C37.8922 31.3886 37.4679 31.564 37.155 31.8765Z" fill="#537B2F"/>
</g>
<defs>
<clipPath id="clip0_157_675">
<rect width="40" height="40" fill="white"/>
</clipPath>
</defs>
</svg>
