<svg width="45" height="45" viewBox="0 0 45 45" fill="none" xmlns="http://www.w3.org/2000/svg">
<path d="M27.6785 21.7258C26.6535 22.3093 25.5361 22.7126 24.3748 22.9183V44.7639C25.3629 44.5715 26.313 44.2187 27.1873 43.7195L38.4879 37.1964C39.9112 36.3711 41.0932 35.1869 41.9157 33.7619C42.7383 32.3369 43.1726 30.7211 43.1754 29.0758V16.0258C43.1694 15.0242 43.0016 14.0301 42.6785 13.082L27.6785 21.7258Z" fill="#B6B92D"/>
<path d="M19.2036 18.4816C20.2078 19.0592 21.346 19.3632 22.5045 19.3632C23.663 19.3632 24.8012 19.0592 25.8055 18.4816L40.8055 9.83781C40.1411 9.07446 39.3571 8.42411 38.4842 7.91218L27.1873 1.38156C25.7612 0.561475 24.1449 0.129883 22.4998 0.129883C20.8548 0.129883 19.2385 0.561475 17.8123 1.38156L6.51172 7.90656C5.66994 8.39948 4.91071 9.02142 4.26172 9.74968L19.2036 18.4816Z" fill="#B6B92D"/>
<path d="M20.625 22.9189C19.4629 22.7137 18.3448 22.3104 17.3193 21.7264L2.35684 12.9814C2.01058 13.9596 1.83059 14.9888 1.82434 16.0264V29.0764C1.82708 30.7218 2.26141 32.3376 3.08395 33.7626C3.90649 35.1875 5.08846 36.3718 6.51184 37.1971L17.8125 43.7202C18.6867 44.2194 19.6368 44.5722 20.625 44.7646V22.9189Z" fill="#B6B92D"/>
</svg>
