<svg width="179" height="180" viewBox="0 0 179 180" fill="none" xmlns="http://www.w3.org/2000/svg">
<circle cx="89.5715" cy="89.927" r="89.3889" fill="#537B2F"/>
<g clip-path="url(#clip0_157_582)">
<path d="M88.7118 104.246C96.6204 104.246 103.032 97.8353 103.032 89.9267C103.032 82.0181 96.6204 75.6069 88.7118 75.6069C80.8033 75.6069 74.3921 82.0181 74.3921 89.9267C74.3921 97.8353 80.8033 104.246 88.7118 104.246Z" fill="white"/>
<path d="M129.062 80.6875C123.509 71.6446 110.879 56.4727 88.7122 56.4727C66.5451 56.4727 53.915 71.6446 48.3625 80.6875C44.8616 86.35 44.8616 93.5048 48.3625 99.1674C53.915 108.21 66.5451 123.382 88.7122 123.382C110.879 123.382 123.509 108.21 129.062 99.1674C132.563 93.5048 132.563 86.35 129.062 80.6875ZM88.7122 111.407C76.8493 111.407 67.2324 101.79 67.2324 89.9274C67.2324 78.0645 76.8493 68.4476 88.7122 68.4476C100.575 68.4476 110.192 78.0645 110.192 89.9274C110.18 101.785 100.57 111.395 88.7122 111.407Z" fill="white"/>
</g>
<defs>
<clipPath id="clip0_157_582">
<rect width="85.9509" height="85.9509" fill="white" transform="translate(45.7367 46.9517)"/>
</clipPath>
</defs>
</svg>
