<svg width="180" height="179" viewBox="0 0 180 179" fill="none" xmlns="http://www.w3.org/2000/svg">
<circle cx="89.6858" cy="89.4895" r="89.3889" fill="#537B2F"/>
<g clip-path="url(#clip0_157_601)">
<path d="M129.08 105.534C128.526 105.534 127.979 105.405 127.483 105.158L120.32 101.576C119.47 101.152 118.824 100.407 118.523 99.5057C118.222 98.6043 118.291 97.6204 118.716 96.7703C119.14 95.9202 119.885 95.2736 120.787 94.9728C121.688 94.6719 122.672 94.7413 123.522 95.1659L130.684 98.7472C131.407 99.1075 131.987 99.7016 132.33 100.433C132.673 101.165 132.758 101.99 132.572 102.776C132.386 103.562 131.94 104.263 131.306 104.763C130.672 105.264 129.888 105.535 129.08 105.534ZM123.518 72.944L130.681 69.3627C131.531 68.9382 132.178 68.1933 132.478 67.292C132.779 66.3907 132.71 65.4067 132.285 64.5567C131.861 63.7066 131.116 63.06 130.215 62.7591C129.313 62.4582 128.329 62.5277 127.479 62.9522L120.317 66.5335C119.467 66.9581 118.82 67.703 118.519 68.6043C118.218 69.5056 118.288 70.4895 118.712 71.3396C119.137 72.1897 119.882 72.8363 120.783 73.1372C121.684 73.4381 122.668 73.3686 123.518 72.944ZM132.661 84.046C132.661 83.0962 132.284 82.1853 131.612 81.5137C130.941 80.842 130.03 80.4647 129.08 80.4647H121.917C120.968 80.4647 120.057 80.842 119.385 81.5137C118.713 82.1853 118.336 83.0962 118.336 84.046C118.336 84.9958 118.713 85.9067 119.385 86.5784C120.057 87.25 120.968 87.6273 121.917 87.6273H129.08C130.03 87.6273 130.941 87.25 131.612 86.5784C132.284 85.9067 132.661 84.9958 132.661 84.046ZM111.174 116.278V51.8144C111.174 50.8646 110.796 49.9537 110.125 49.2821C109.453 48.6105 108.542 48.2332 107.592 48.2332C106.642 48.2332 105.732 48.6105 105.06 49.2821C104.388 49.9537 104.011 50.8646 104.011 51.8144C104.011 62.3757 94.7605 66.1396 86.1046 66.1396H61.0356C57.2363 66.1396 53.5926 67.6488 50.9062 70.3353C48.2197 73.0218 46.7104 76.6655 46.7104 80.4647V87.6273C46.7104 91.4266 48.2197 95.0702 50.9062 97.7567C53.5926 100.443 57.2363 101.952 61.0356 101.952H86.1046C94.7605 101.952 104.011 105.716 104.011 116.278C104.011 117.227 104.388 118.138 105.06 118.81C105.732 119.482 106.642 119.859 107.592 119.859C108.542 119.859 109.453 119.482 110.125 118.81C110.796 118.138 111.174 117.227 111.174 116.278ZM76.0268 109.115H61.0356C59.3682 109.108 57.7072 108.908 56.0862 108.517L65.0394 128.508C65.7914 130.197 67.017 131.633 68.5679 132.64C70.1187 133.648 71.9284 134.184 73.7778 134.184C75.2492 134.182 76.6967 133.812 77.9884 133.107C79.2801 132.403 80.3749 131.386 81.1731 130.15C81.9712 128.914 82.4474 127.498 82.5581 126.03C82.6689 124.563 82.4106 123.092 81.807 121.75L76.0268 109.115Z" fill="white"/>
</g>
<defs>
<clipPath id="clip0_157_601">
<rect width="85.9509" height="85.9509" fill="white" transform="translate(46.7104 48.2332)"/>
</clipPath>
</defs>
</svg>
