<svg width="4153" height="704" viewBox="0 0 4153 704" fill="none" xmlns="http://www.w3.org/2000/svg">
<g clip-path="url(#clip0_420_470)">
<rect width="4153" height="704" fill="#7055BF"/>
<g filter="url(#filter0_f_420_470)">
<path d="M3649 -296C3649 -81.8139 3606.36 130.275 3523.52 328.157C3440.67 526.039 3319.24 705.839 3166.17 857.291C3013.09 1008.74 2831.36 1128.88 2631.35 1210.85C2431.35 1292.81 2216.98 1335 2000.5 1335C1784.02 1335 1569.65 1292.81 1369.65 1210.85C1169.64 1128.88 987.912 1008.74 834.834 857.291C681.757 705.839 560.329 526.039 477.485 328.157C394.64 130.275 352 -81.814 352 -296L827.044 -296C827.044 -143.535 857.396 7.43634 916.368 148.295C975.339 289.154 1061.78 417.142 1170.74 524.951C1279.71 632.759 1409.07 718.278 1551.44 776.624C1693.81 834.969 1846.4 865 2000.5 865C2154.6 865 2307.19 834.969 2449.56 776.624C2591.93 718.278 2721.29 632.759 2830.26 524.951C2939.22 417.142 3025.66 289.154 3084.63 148.295C3143.6 7.43645 3173.96 -143.535 3173.96 -296H3649Z" fill="#AC8FFF"/>
</g>
<g filter="url(#filter1_f_420_470)">
<path d="M2615 5.38524e-05C2615 80.8943 2598.47 160.996 2566.36 235.733C2534.25 310.47 2487.18 378.377 2427.84 435.578C2368.5 492.779 2298.06 538.153 2220.53 569.11C2143.01 600.067 2059.91 616 1976 616C1892.09 616 1808.99 600.067 1731.47 569.11C1653.94 538.153 1583.5 492.779 1524.16 435.578C1464.82 378.377 1417.75 310.47 1385.64 235.733C1353.53 160.996 1337 80.8943 1337 0L1642.27 2.5727e-05C1642.27 42.2485 1650.9 84.0834 1667.67 123.116C1684.45 162.148 1709.03 197.614 1740.02 227.489C1771.01 257.363 1807.8 281.06 1848.29 297.228C1888.78 313.396 1932.17 321.717 1976 321.717C2019.83 321.717 2063.22 313.396 2103.71 297.228C2144.2 281.06 2180.99 257.363 2211.98 227.489C2242.97 197.614 2267.55 162.148 2284.33 123.116C2301.1 84.0834 2309.73 42.2486 2309.73 5.38524e-05H2615Z" fill="#AC8FFF"/>
</g>
</g>
<defs>
<filter id="filter0_f_420_470" x="343" y="-305" width="3315" height="1649" filterUnits="userSpaceOnUse" color-interpolation-filters="sRGB">
<feFlood flood-opacity="0" result="BackgroundImageFix"/>
<feBlend mode="normal" in="SourceGraphic" in2="BackgroundImageFix" result="shape"/>
<feGaussianBlur stdDeviation="4.5" result="effect1_foregroundBlur_420_470"/>
</filter>
<filter id="filter1_f_420_470" x="1328" y="-9" width="1296" height="634" filterUnits="userSpaceOnUse" color-interpolation-filters="sRGB">
<feFlood flood-opacity="0" result="BackgroundImageFix"/>
<feBlend mode="normal" in="SourceGraphic" in2="BackgroundImageFix" result="shape"/>
<feGaussianBlur stdDeviation="4.5" result="effect1_foregroundBlur_420_470"/>
</filter>
<clipPath id="clip0_420_470">
<rect width="4153" height="704" fill="white"/>
</clipPath>
</defs>
</svg>
