<svg width="4153" height="708" viewBox="0 0 4153 708" fill="none" xmlns="http://www.w3.org/2000/svg">
<rect width="4153" height="708" fill="#537D9B"/>
<path d="M0 151L287.904 465.623C294.71 473.061 303.085 478.892 312.423 482.695L609.153 603.533C621.968 608.752 635.673 611.435 649.509 611.435H743.072C765.069 611.435 786.369 603.721 803.264 589.636L1248.23 218.678C1311.7 165.764 1404.93 169.493 1463.97 227.307L1758.5 515.714L1965.68 657.577C1987.97 672.843 2014.36 681.013 2041.39 681.013H2118.36C2145.98 681.013 2172.53 670.331 2192.46 651.202L2333.6 515.714L2623.4 181.743L2735.6 71.4991C2794.99 13.1408 2890.82 15.2461 2947.59 76.1563L3124.22 265.658L3336.95 559.035C3345.51 570.848 3355.82 581.291 3367.53 590.005L3526 708H1.90735e-06L0 151Z" fill="#3F5565" fill-opacity="0.77"/>
<path d="M0 678.713C0 637.577 19.0346 598.756 51.5554 573.566L297.234 383.268C303.904 378.101 311.052 373.581 318.579 369.768L555.645 249.684C567.65 243.604 578.564 235.575 587.943 225.925L596.049 217.586C644.03 168.222 724.787 173.493 765.945 228.676V228.676C771.799 236.525 778.658 243.571 786.347 249.634L975.751 399L1274.64 672.174C1299.16 694.577 1331.16 707 1364.37 707H1531.36L1966.5 184V184C2006.34 128.121 2087.34 122.645 2134.34 172.653L2145 184L2572.99 578.315C2597.55 600.94 2629.72 613.5 2663.11 613.5H2785.81C2817.06 613.5 2847.32 602.492 2871.27 582.408L3118 375.5L3219.1 272L3371.79 152.544C3401.1 129.616 3439.69 122.283 3475.36 132.862V132.862C3485.73 135.939 3495.62 140.464 3504.73 146.304L3851.58 368.653C3858.68 373.207 3865.34 378.428 3871.45 384.243L4028.19 533.3C4033.93 538.756 4039.17 544.713 4043.84 551.1L4106.75 637L4153 707H0V678.713Z" fill="#4B6A80" fill-opacity="0.77"/>
</svg>
