<svg width="1281" height="1616" viewBox="0 0 1281 1616" fill="none" xmlns="http://www.w3.org/2000/svg">
<path fill-rule="evenodd" clip-rule="evenodd" d="M803.656 127.013C885.808 169.65 930.286 275.724 981.594 371.601C1033.43 468.46 1094.59 557.187 1103.22 686.797C1112.81 830.851 1098.04 992.53 1031.9 1127.08C964.996 1263.2 855.314 1341.23 750.146 1405.1C646.681 1467.94 539.66 1506.31 439.249 1487C335.233 1466.99 228.041 1419.22 180.665 1295.57C134.855 1175.99 187.012 1010.44 199.397 860.965C210.986 721.093 196.836 581.217 250.707 450.21C308.489 309.694 398.419 184.128 502.81 123.112C605.588 63.0382 712.779 79.8475 803.656 127.013Z" fill="#FFBF29" fill-opacity="0.37"/>
<path fill-rule="evenodd" clip-rule="evenodd" d="M786.176 209.977C859.896 248.239 899.809 343.426 945.851 429.463C992.364 516.381 1047.25 596.002 1054.99 712.31C1063.6 841.579 1050.34 986.665 990.997 1107.4C930.957 1229.55 832.531 1299.58 738.157 1356.89C645.311 1413.28 549.274 1447.72 459.168 1430.39C365.828 1412.43 269.637 1369.56 227.123 1258.6C186.014 1151.3 232.819 1002.74 243.933 868.602C254.332 743.086 241.634 617.565 289.977 500.005C341.828 373.909 422.528 261.23 516.206 206.476C608.435 152.569 704.625 167.653 786.176 209.977Z" fill="#FFBF29"/>
</svg>
