<svg width="1920" height="1258" viewBox="0 0 1920 1258" fill="none" xmlns="http://www.w3.org/2000/svg">
<path d="M56.1443 -9.54503L112.911 47.2217L113.206 46.9543C126.762 34.6671 147.377 34.5012 161.129 46.5688L161.45 46.8511C171.776 58.947 172.778 76.4407 163.901 89.6364L160.452 94.7629L219.843 154.154L168.438 205.559L166.114 203.869C160.465 199.761 153.744 197.385 146.768 197.03L139.102 196.64C131.876 196.273 124.708 198.091 118.532 201.857L115.032 203.991C110.116 206.989 105.99 211.122 103.002 216.044L99.4424 221.907C93.8342 231.144 92.672 242.411 96.2767 252.599L102.06 268.942L52.1517 321.845L-7.23893 262.454C-15.8033 271.018 -28.4714 274.009 -39.9616 270.179L-47.163 267.778C-52.5379 265.987 -56.8328 261.89 -58.8761 256.606L-62.9959 245.951C-67.3286 234.746 -64.644 222.039 -56.1489 213.544L-111.547 158.146L56.1443 -9.54503Z" fill="#A7D46F" fill-opacity="0.22"/>
<path d="M1493.67 804L1619.32 876.547L1595.58 917.67C1606.48 921.709 1612.1 933.757 1608.2 944.703L1606.23 950.221L1604.68 951.953C1596.87 960.645 1583.54 961.485 1574.7 953.844L1547.65 1000.68L1422 928.132L1493.67 804Z" fill="#A7D46F" fill-opacity="0.22"/>
<path d="M1817.68 969L1985.42 1065.85L1959.33 1111.04L1957.79 1110.39C1943.23 1104.2 1926.34 1108.25 1916.16 1120.36L1914.3 1122.57C1911.49 1125.91 1909.31 1129.73 1907.87 1133.85L1907.56 1134.76C1902.39 1149.54 1907.37 1165.97 1919.88 1175.39L1921.48 1176.6L1891.94 1227.75L1832.39 1193.37C1826.62 1208.47 1809.88 1216.24 1794.62 1210.89L1792.86 1210.27L1788.88 1206.98C1776.53 1196.75 1774.89 1178.4 1785.25 1166.15L1724.2 1130.9L1753.74 1079.75L1756.15 1080.74C1769.31 1086.17 1784.43 1083.33 1794.72 1073.5L1795.48 1072.78C1800.3 1068.17 1803.75 1062.31 1805.44 1055.86L1806.15 1053.15C1809.82 1039.16 1804.75 1024.33 1793.29 1015.51L1791.59 1014.19L1817.68 969Z" fill="#A7D46F" fill-opacity="0.22"/>
<path d="M1295.17 315L1465.17 413.15L1438.73 458.953L1436.84 458.152C1422.28 451.967 1405.39 456.012 1395.21 468.12L1393.04 470.703C1390.23 474.045 1388.05 477.869 1386.61 481.989L1386.14 483.326C1380.98 498.11 1385.96 514.54 1398.47 523.962L1400.37 525.393L1370.44 577.237L1310.08 542.391C1304.23 557.696 1287.27 565.568 1271.8 560.15L1270.01 559.523L1265.99 556.189C1253.46 545.819 1251.81 527.223 1262.3 514.804L1200.44 479.087L1230.37 427.243L1233.1 428.369C1246.26 433.794 1261.38 430.953 1271.68 421.123L1272.77 420.08C1277.6 415.473 1281.04 409.617 1282.74 403.164L1283.57 399.975C1287.24 385.983 1282.17 371.156 1270.71 362.331L1268.73 360.803L1295.17 315Z" fill="#A7D46F" fill-opacity="0.22"/>
<path d="M190.814 599.888L105 514.074L128.121 490.953C136.42 497.44 147.981 497.749 156.615 491.716L157.142 491.348C159.449 489.735 161.444 487.717 163.029 485.39C168.715 477.044 168.354 465.979 162.134 458.022L161.659 457.415L187.829 431.245L218.296 461.711C224.238 453.507 235.63 451.522 243.997 457.231L244.965 457.892L246.837 460.527C252.656 468.724 250.669 480.093 242.415 485.831L273.643 517.059L247.474 543.229L246.539 542.515C239.234 536.929 229.323 536.173 221.254 540.586C217.474 542.654 214.342 545.731 212.208 549.476L212.046 549.76C207.19 558.281 207.979 568.976 213.935 576.767L190.814 599.888Z" fill="#A7D46F" fill-opacity="0.22"/>
<path d="M1232 893L1232 1023L1197.11 1023L1184.81 1023L1177.63 1023L1171.04 1023L1154.22 1023L1146.5 1023L1107.01 1023L1107.01 976.846C1096.34 978.559 1086.24 971.462 1084.25 960.841L1084 959.538L1084.59 956.055C1086.38 945.481 1096.45 938.402 1107.01 940.308L1107.01 893L1146.5 893L1146.67 894.326C1147.97 904.044 1154.86 912.09 1164.27 914.855C1168.69 916.157 1173.39 916.198 1177.84 914.975L1178.18 914.882C1188.26 912.109 1195.7 903.574 1197.08 893.21L1197.11 893L1232 893Z" fill="#A7D46F" fill-opacity="0.22"/>
<path d="M1821.59 233.483L1820.86 290.349C1833.95 291.16 1844.36 301.687 1845.05 314.79C1844.02 326.009 1835.64 335.167 1824.55 337.189L1820.25 337.974L1819.48 397.469L1767.99 396.808C1767.09 390.597 1764.4 384.782 1760.26 380.07L1759.08 378.734C1754.99 374.094 1749.61 370.791 1743.62 369.258C1738.85 368.037 1733.86 367.978 1729.07 369.085L1728.71 369.168C1719.27 371.347 1711.31 377.651 1707.02 386.339L1703.01 394.475L1651.5 395.314L1652.26 335.819C1643.68 335.709 1635.9 330.761 1632.16 323.038L1630.27 319.131C1628.24 314.927 1628.18 310.035 1630.13 305.788L1633.06 299.373C1636.61 291.634 1644.38 286.714 1652.89 286.823L1653.6 231.327L1821.59 233.483Z" fill="#A7D46F" fill-opacity="0.22"/>
<path d="M1065.35 197.268L1054.23 238.775L1055.27 239.106C1064.73 242.115 1070.44 251.737 1068.54 261.483C1065.66 269.485 1057.78 274.567 1049.3 273.887L1044.92 273.536L1033.28 316.962L993.284 306.245C993.735 301.524 992.752 296.777 990.463 292.624L989.856 291.525C987.428 287.12 983.765 283.522 979.317 281.173C975.885 279.361 972.088 278.347 968.209 278.208L968.01 278.2C960.115 277.916 952.501 281.149 947.223 287.026L943.095 291.623L902.804 282.001L914.44 238.575C907.749 236.782 902.592 231.444 901.032 224.694L900.489 222.344C899.636 218.655 900.573 214.779 903.018 211.887L905.883 208.497C910.319 203.249 917.386 201.035 924.023 202.813L934.876 162.307L1065.35 197.268Z" fill="#A7D46F" fill-opacity="0.22"/>
<path d="M674.718 305L742.601 344.193L729.775 366.409C735.661 368.591 738.699 375.1 736.592 381.013L735.53 383.994L734.689 384.93C730.469 389.626 723.268 390.08 718.492 385.951L703.884 411.254L636 372.061L674.718 305Z" fill="#A7D46F" fill-opacity="0.22"/>
<path d="M230 958L230 1067L200.767 1067L190.459 1067L184.449 1067L178.922 1067L164.837 1067L158.363 1067L125.275 1067L125.275 1028.3C116.336 1029.74 107.88 1023.79 106.207 1014.89L106 1013.79L106.495 1010.86C107.991 1002 116.434 996.068 125.275 997.666L125.275 958L158.363 958L158.512 959.124C159.593 967.265 165.368 974.006 173.246 976.324C176.957 977.416 180.898 977.45 184.627 976.424L184.909 976.346C193.354 974.022 199.589 966.872 200.742 958.19L200.767 958L230 958Z" fill="#A7D46F" fill-opacity="0.22"/>
</svg>
